<svg width="272" height="81" viewBox="0 0 272 81" fill="none" xmlns="http://www.w3.org/2000/svg">
<path d="M40.4107 1.30242e-07C35.1037 -0.000426296 29.8488 1.04626 24.9457 3.08026C20.0426 5.11426 15.5884 8.09625 11.8358 11.855C8.08316 15.6137 5.10599 20.0766 3.07528 24.9877C1.04457 29.8988 -0.000425606 35.1621 1.30032e-07 40.4778C1.12956e-07 45.7931 1.04596 51.0556 3.07686 55.9663C5.10776 60.8769 8.0832 65.339 11.8358 69.0974C15.5884 72.8558 20.0444 75.8367 24.9473 77.8705C29.8502 79.9043 35.104 80.9512 40.4107 80.9508C45.7172 80.9508 50.9716 79.9045 55.8742 77.8705C60.7767 75.8365 65.2318 72.8557 68.9841 69.0974C72.7363 65.3391 75.7123 60.8767 77.743 55.9663C79.7737 51.0558 80.8198 45.7928 80.8198 40.4778C80.8203 35.1624 79.7751 29.8985 77.7446 24.9877C75.7141 20.0768 72.7379 15.6152 68.9856 11.8565C65.2334 8.09788 60.7785 5.11604 55.8757 3.08185C50.973 1.04765 45.7175 1.13142e-07 40.4107 1.30242e-07V1.30242e-07ZM41.5455 45.8345H20.639C21.0837 47.5095 22.1229 48.9644 23.5624 49.9262C25.0019 50.888 26.7414 51.2903 28.4562 51.0581C29.6392 51.1332 30.8227 50.9208 31.905 50.4367C32.9874 49.9526 33.9363 49.2115 34.6701 48.2791L40.4376 51.6146C39.1002 53.5605 37.286 55.1281 35.1687 56.1692C33.0513 57.2102 30.7021 57.6883 28.347 57.5579C26.324 57.6487 24.3032 57.3276 22.4085 56.6115C20.5139 55.8954 18.7852 54.8001 17.3263 53.3933C15.9544 52.0194 14.8776 50.3787 14.1624 48.5724C13.4472 46.7661 13.1079 44.8329 13.1669 42.8906C13.1128 40.9591 13.4478 39.036 14.1529 37.2374C14.8581 35.4388 15.9192 33.8014 17.2709 32.4228C18.6427 31.0322 20.2877 29.9409 22.1015 29.2189C23.9152 28.4969 25.8583 28.16 27.8089 28.2281C29.6898 28.1735 31.5606 28.5211 33.2963 29.249C35.032 29.9769 36.5925 31.0676 37.8736 32.4482C40.5213 35.2657 41.9482 39.0196 41.8415 42.8874C41.83 43.877 41.7293 44.8627 41.5424 45.8345H41.5455ZM67.1702 55.5747C64.9363 56.8927 62.384 57.5739 59.7915 57.5452C57.8532 57.5972 55.9252 57.2504 54.1268 56.5243C52.3284 55.7982 50.6994 54.709 49.339 53.3251C47.9684 51.9603 46.8888 50.3291 46.1687 48.5327C45.4487 46.7363 45.1033 44.8115 45.151 42.8763C45.104 40.9427 45.4503 39.021 46.1703 37.2263C46.8904 35.4316 47.9692 33.802 49.339 32.4386C50.6993 31.0546 52.3284 29.9656 54.1268 29.2395C55.9252 28.5134 57.8532 28.1663 59.7915 28.2185C62.3808 28.1918 64.9306 28.8635 67.1702 30.1653C69.3173 31.3862 71.0687 33.1993 72.2192 35.3873L66.0607 38.9971C65.5097 37.8576 64.6307 36.9101 63.5362 36.2767C62.3842 35.6036 61.0712 35.2576 59.7376 35.2764C58.7506 35.2461 57.7672 35.4202 56.8507 35.7884C55.9342 36.1566 55.1043 36.7115 54.4117 37.4165C53.7105 38.1384 53.1625 38.9944 52.8005 39.934C52.4384 40.8736 52.2684 41.8761 52.3035 42.8827C52.2707 43.8817 52.4415 44.8778 52.8036 45.8092C53.1658 46.7405 53.713 47.5892 54.4117 48.3029C55.1046 49.0071 55.9343 49.5602 56.8507 49.9278C57.7672 50.2954 58.7509 50.4688 59.7376 50.4383C61.0857 50.4607 62.4155 50.1252 63.5916 49.4649C64.689 48.8479 65.5691 47.9066 66.113 46.7699L72.3268 50.3416C71.1084 52.521 69.3277 54.3313 67.1702 55.5842V55.5747Z" fill="white"/>
<path d="M32.1456 36.056C30.8825 35.1337 29.3559 34.6455 27.793 34.6657C26.0815 34.5994 24.3979 35.1196 23.021 36.14C21.7275 37.1817 20.8433 38.6477 20.525 40.2793H34.6685C34.3925 38.6021 33.4901 37.0931 32.1456 36.056Z" fill="white"/>
<path d="M99.2824 53.3045C97.9239 54.6856 96.2986 55.7745 94.5056 56.5052C92.7127 57.2359 90.7905 57.5934 88.8552 57.5547C86.9241 57.5949 85.0043 57.2377 83.2159 56.5068C81.4275 55.7759 79.8083 54.6864 78.4566 53.3045C77.0764 51.9509 75.9876 50.3288 75.2578 48.5374C74.5281 46.746 74.1725 44.8233 74.2132 42.889C74.1729 40.9547 74.5281 39.0318 75.2578 37.2405C75.9876 35.4492 77.0767 33.8273 78.4566 32.4735C79.808 31.091 81.4274 30.0005 83.2159 29.2695C85.0044 28.5386 86.924 28.1824 88.8552 28.2232C90.7906 28.1842 92.7127 28.5404 94.5056 29.2711C96.2986 30.0019 97.9241 31.0921 99.2824 32.4735C100.669 33.8233 101.764 35.4439 102.499 37.2357C103.233 39.0276 103.593 40.9524 103.553 42.889C103.593 44.8256 103.235 46.7503 102.5 48.5422C101.766 50.3341 100.67 51.9548 99.2824 53.3045V53.3045ZM83.504 48.3852C84.199 49.0958 85.0332 49.655 85.954 50.0276C86.8749 50.4003 87.8624 50.5784 88.8552 50.5508C89.8522 50.5768 90.8437 50.3985 91.7691 50.026C92.6945 49.6536 93.5347 49.0949 94.2366 48.3852C94.9524 47.6653 95.5124 46.8067 95.8842 45.8614C96.256 44.9161 96.4318 43.9045 96.3986 42.889C96.4309 41.8731 96.256 40.8606 95.8842 39.9149C95.5124 38.9692 94.9517 38.1106 94.2366 37.3895C93.5347 36.6798 92.6945 36.1212 91.7691 35.7487C90.8437 35.3763 89.8522 35.198 88.8552 35.224C87.8624 35.1964 86.8749 35.3745 85.954 35.7471C85.0332 36.1198 84.199 36.6789 83.504 37.3895C82.7951 38.1139 82.2393 38.9743 81.8721 39.9197C81.505 40.865 81.3335 41.8752 81.3672 42.889C81.3335 43.9023 81.505 44.9119 81.8721 45.8567C82.2393 46.8015 82.7952 47.6614 83.504 48.3852V48.3852Z" fill="white"/>
<path d="M124.015 28.2243C125.411 28.1819 126.801 28.4312 128.095 28.9567C129.389 29.4822 130.56 30.2721 131.532 31.276C132.56 32.4161 133.352 33.7506 133.862 35.1997C134.371 36.6488 134.589 38.1839 134.501 39.7178V56.7726H127.347V40.6072C127.4 39.8339 127.295 39.0584 127.038 38.3275C126.78 37.5966 126.376 36.9255 125.85 36.357C125.317 35.8553 124.689 35.4672 124.003 35.2139C123.317 34.9607 122.586 34.8488 121.856 34.8842C121.037 34.8467 120.22 34.9805 119.456 35.2774C118.692 35.5742 117.999 36.0268 117.419 36.6074C116.21 38.0443 115.613 39.8987 115.756 41.7724V56.7726H108.602V28.9979H115.756V32.1083C116.679 30.8001 117.925 29.7531 119.373 29.0724C120.82 28.3918 122.42 28.0998 124.015 28.2243V28.2243Z" fill="white"/>
<path d="M158.352 29.0038H166.226L155.691 56.7832H147.539L137.001 29.0038H144.874L151.597 48.4429L158.352 29.0038Z" fill="white"/>
<path d="M174.598 45.8352C175.044 47.5099 176.085 48.9642 177.525 49.9253C178.965 50.8865 180.706 51.2897 182.42 51.0573C183.603 51.1333 184.787 50.9194 185.869 50.4358C186.952 49.9523 187.9 49.2136 188.634 48.2814L194.404 51.6153C193.067 53.5615 191.253 55.1304 189.135 56.1715C187.018 57.2125 184.669 57.6909 182.314 57.5602C180.288 57.6542 178.264 57.3332 176.366 56.6169C174.469 55.9007 172.736 54.8036 171.276 53.394C169.905 52.0206 168.828 50.3804 168.112 48.5747C167.397 46.7689 167.059 44.8363 167.118 42.8945C167.063 40.9624 167.398 39.0389 168.103 37.2397C168.808 35.4405 169.869 33.8023 171.221 32.4235C172.592 31.0326 174.238 29.9416 176.051 29.2196C177.865 28.4976 179.808 28.1603 181.759 28.2288C183.637 28.1768 185.505 28.5267 187.237 29.2545C188.97 29.9823 190.528 31.0722 191.808 32.4505C194.455 35.2707 195.882 39.0248 195.776 42.8945C195.771 43.8823 195.678 44.8685 195.499 45.84L174.598 45.8352ZM174.488 40.2803H188.631C188.354 38.6038 187.451 37.0959 186.106 36.0602C184.844 35.1384 183.317 34.6502 181.756 34.6699C180.045 34.603 178.362 35.1221 176.984 36.1411C175.697 37.184 174.819 38.6487 174.505 40.2771L174.488 40.2803Z" fill="white"/>
<path d="M207.934 33.7822C208.522 32.0979 209.692 30.6802 211.233 29.7856C212.794 28.8888 214.566 28.4275 216.365 28.4508V36.4503C214.317 36.161 212.235 36.6364 210.514 37.7851C209.625 38.4331 208.918 39.3009 208.464 40.3042C208.009 41.3074 207.822 42.4108 207.921 43.5081V56.7851H200.767V29.0088H207.921L207.934 33.7822Z" fill="white"/>
<path d="M226.238 36.889C226.238 37.6293 226.728 38.2305 227.709 38.6915C228.855 39.2142 230.05 39.624 231.275 39.9154C232.705 40.2766 234.112 40.7226 235.489 41.2502C236.904 41.8012 238.137 42.7342 239.054 43.9452C240.066 45.307 240.584 46.9718 240.523 48.6679C240.584 49.9447 240.325 51.2165 239.767 52.3664C239.21 53.5163 238.373 54.5086 237.333 55.2501C234.994 56.8497 232.206 57.6574 229.376 57.5551C226.992 57.7832 224.595 57.2703 222.512 56.0871C220.428 54.904 218.758 53.1075 217.729 50.9412L223.94 47.4409C224.29 48.5792 225.022 49.5617 226.013 50.2199C227.004 50.8781 228.193 51.1725 229.376 51.0522C231.928 51.0522 233.203 50.2556 233.201 48.6647C233.201 47.9223 232.712 47.3207 231.733 46.8575C230.584 46.334 229.39 45.9148 228.167 45.6066C226.736 45.2266 225.329 44.7634 223.953 44.2179C222.555 43.6636 221.327 42.7538 220.387 41.5784C219.38 40.2896 218.859 38.6851 218.919 37.0491C218.868 35.8067 219.116 34.5703 219.643 33.4441C220.169 32.318 220.958 31.3347 221.943 30.5779C224.107 28.9556 226.759 28.1226 229.46 28.2174C231.609 28.1898 233.73 28.7159 235.619 29.744C237.46 30.7557 238.979 32.2662 240.001 34.1036L233.901 37.4375C233.544 36.564 232.925 35.8239 232.131 35.3164C231.336 34.8089 230.404 34.5588 229.463 34.603C228.652 34.571 227.85 34.7836 227.162 35.2133C226.874 35.3862 226.637 35.6325 226.475 35.9267C226.312 36.221 226.231 36.553 226.238 36.889Z" fill="white"/>
<path d="M250.805 45.8327C251.251 47.5074 252.292 48.9617 253.732 49.9228C255.172 50.884 256.912 51.2872 258.626 51.0547C259.809 51.1302 260.993 50.9168 262.075 50.4333C263.158 49.9498 264.106 49.2107 264.84 48.2789L270.61 51.6128C269.273 53.5587 267.459 55.1279 265.341 56.169C263.224 57.21 260.875 57.6881 258.52 57.5577C256.494 57.6517 254.47 57.3307 252.572 56.6144C250.675 55.8982 248.942 54.8011 247.482 53.3915C246.11 52.0184 245.034 50.3779 244.318 48.5721C243.603 46.7663 243.265 44.8338 243.324 42.892C243.269 40.9599 243.604 39.0364 244.309 37.2372C245.014 35.4379 246.075 33.7997 247.428 32.421C248.799 31.0299 250.444 29.9391 252.257 29.2171C254.071 28.4951 256.015 28.1576 257.966 28.2263C259.846 28.1721 261.717 28.5209 263.452 29.2488C265.188 29.9766 266.749 31.0678 268.03 32.4479C270.677 35.2685 272.102 39.0226 271.994 42.892C271.988 43.8799 271.895 44.8661 271.716 45.8375L250.805 45.8327ZM250.694 40.2778H264.837C264.559 38.6014 263.657 37.0936 262.312 36.0577C261.049 35.1355 259.522 34.6472 257.959 34.6674C256.249 34.6012 254.567 35.1203 253.19 36.1385C251.897 37.1789 251.013 38.6439 250.694 40.2746V40.2778Z" fill="white"/>
</svg>
