<svg viewBox="-27 0 511 512">
  <path d="M109.754 321.988c-5.703-8.054-16.945-9.93-25.059-4.183C72.98 326.105 16.75 365.934 8.18 372c-8.145 5.77-10.133 16.973-4.41 25.055L79.875 504.5c5.703 8.05 16.96 9.914 25.098 4.152l76.511-54.195c8.114-5.746 10.075-16.973 4.371-25.023l-1.152-1.625c19.43-9.868 40.98-14.922 62.8-14.653l10.278.125c4.13.102 7.54-3.265 7.59-7.41a7.5 7.5 0 0 0-7.406-7.59l-10.277-.125a150.073 150.073 0 0 0-71.743 17.281l-54.562-77.03 49.742-35.231c8.012-5.672 17.762-7.977 27.46-6.485l102.31 15.727a17.76 17.76 0 0 1 14.996 19.773 17.794 17.794 0 0 1-16.25 15.614l-49.442-4.426c-4.11-.371-7.77 2.676-8.137 6.8a7.502 7.502 0 0 0 6.801 8.141c60.078 5.38 40.024 3.477 94.098 8.89 2.422.243 9.297 1.376 16.254-3.55l59.504-42.144a.082.082 0 0 0 .023-.016c6.883-4.855 16.485-3.258 21.442 3.465 5.21 7.07 3.101 17.2-3.942 22.187l-56.515 40.028c-11.52 8.16-25.61 12.472-39.848 12.105l-46.914-.574h-.094a7.5 7.5 0 0 0-.09 15l46.817.57c17.336.438 34.656-4.843 48.8-14.863l56.512-40.027c13.75-9.739 17.64-29.36 7.348-43.328-4.703-6.375-11.512-10.387-18.809-11.79-1.445-8.523-6-16.433-12.433-20.96-13.766-9.692-32.844-6.383-42.532 7.378L336.5 350.313a5.86 5.86 0 0 1-.988 1.074l-11.426-1.14a32.768 32.768 0 0 0 6.691-16.25c2.149-17.708-9.976-33.696-27.605-36.407l-102.309-15.727c-13.562-2.082-27.203 1.137-38.406 9.07l-49.742 35.231zm280.992-22.656c4.93-7 14.633-8.684 21.633-3.754 2.781 1.957 4.945 5.563 5.953 9.55-2.61.84-5.719 2.329-8.285 4.145l-52.477 37.172zM96.301 496.41c-1.387.985-3.266.723-4.188-.582L16.012 388.383c-.946-1.328-.52-3.18.84-4.14l47.25-33.47 79.449 112.168zm76.515-54.195-17.023 12.058c-2.938-4.148-76.535-108.058-79.45-112.171l17.02-12.055c1.364-.965 3.227-.692 4.149.61l76.101 107.445c.922 1.304.567 3.148-.797 4.113zM287.273 45.77c.38.644.856 1.23 1.407 1.734 2.297 2.094 4.64 3.16 6.968 3.176.075 0 .149 0 .22-.004 3.874-.09 6.839-3.207 7.874-4.864 31.738-51.007 104.82-34.82 114.832 20.231a7.498 7.498 0 0 0 8.723 6.035 7.496 7.496 0 0 0 6.035-8.719C421.398-2.25 336.637-23.457 295.586 31.191c-27.617-37.214-82.723-42.214-116.504-8.386-14.586 14.605-22.605 33.996-22.586 54.601.078 74.242 62.223 134.063 129.82 165.973a21.919 21.919 0 0 0 18.801-.024c57.184-27.136 116.156-78.144 127.414-142.359a7.5 7.5 0 0 0-6.094-8.683c-4.085-.72-7.964 2.015-8.683 6.093-10.422 59.469-67.371 106.864-119.067 131.399a6.968 6.968 0 0 1-5.972.007c-58.55-27.636-121.145-82.19-121.219-152.421-.016-16.598 6.445-32.215 18.2-43.985 28.753-28.793 76.898-22.742 97.577 12.364zm0 0"/>
</svg>
