<svg xml:space="preserve" viewBox="0 0 682.667 682.667">
  <defs>
    <clipPath id="a" clipPathUnits="userSpaceOnUse">
      <path d="M0 512h512V0H0Z"/>
    </clipPath>
  </defs>
  <g fill="none" stroke="#000" stroke-linecap="round" stroke-linejoin="round" stroke-miterlimit="10" stroke-width="20" clip-path="url(#a)" transform="matrix(1.33333 0 0 -1.33333 0 682.667)">
    <path d="M28.686 25.575h0c-20.793 20.793-20.793 54.504 0 75.296l123.562 123.563 75.297-75.296L103.982 25.575c-20.792-20.792-54.504-20.792-75.296 0Z"/>
    <path d="m212.293 259.207-47.41-47.409 50.026-50.024 27.409 27.408m79.624 79.626 44.875 44.874-50.026 50.024-63.749-63.749"/>
    <path d="m236.49 428.211-21.612 21.611 25.782 25.781c35.2 35.2 92.272 35.2 127.473 0h0l80.302-80.303-7.898-14.48 16.03-16.03 17.7 4.68 23.175-23.176c6.103-6.104 6.103-16 0-22.104l-48.326-48.326c-6.104-6.103-16-6.103-22.104 0l-23.175 23.176 4.68 17.7-16.03 16.03-25.67-19.089-50.025 50.025c11.632 11.632 11.632 30.493 0 42.126l-22.38 22.38c-15.995 15.994-41.928 15.994-57.923 0ZM386.455 50.267l24.654-24.654c20.793-20.793 54.504-20.793 75.296 0h0c20.793 20.793 20.793 54.504 0 75.297L354.637 232.679l-75.296-75.297 43.476-43.476"/>
    <path d="m243.64 215.802 52.577 52.577c6.274 6.274 16.446 6.274 22.72 0l35.7-35.702-75.296-75.295-35.7 35.7c-6.275 6.275-6.275 16.446 0 22.72Z"/>
    <path d="m251.105 223.266 37.648 37.648-186.358 186.358-37.648-37.648ZM10 475.352l26.667 26.667 48.753-26.79 16.975-27.956-37.648-37.648L36.791 426.6ZM354.637 82.085h0"/>
  </g>
</svg>
