<svg xml:space="preserve" viewBox="0 0 512 512">
  <path d="M207.215 416.64h-90.657a7.501 7.501 0 0 0 0 15.002h90.657a7.501 7.501 0 0 0 0-15.002z"/>
  <path d="m243.065 187.037-38.838-30.923c1.968-5.596 3.748-14.857 3.748-30.049 0-22.304-4.633-41.216-8.589-53.3 2.514-2.238 4.109-5.488 4.109-9.11V12.21c0-6.733-5.478-12.21-12.211-12.21h-58.796c-6.733 0-12.21 5.478-12.21 12.21v51.445c0 3.623 1.595 6.872 4.108 9.11-3.956 12.084-8.589 30.996-8.589 53.3 0 15.192 1.781 24.453 3.749 30.049l-38.838 30.923c-8.869 7.061-13.956 17.613-13.956 28.95V487.03c0 13.769 11.202 24.97 24.971 24.97h140.326c13.769 0 24.97-11.201 24.97-24.97V215.987c.001-11.337-5.085-21.889-13.954-28.95zM135.281 15.003h53.211v11.482h-53.211V15.003zm0 27.512h53.211v18.348h-53.211V42.515zm3.884 33.351h45.442c3.102 9.114 6.859 23.175 8.007 40.038h-61.456c1.148-16.863 4.906-30.924 8.007-40.038zM81.756 241.034h24.122a7.501 7.501 0 0 0 0-15.002H81.756v-10.045a21.889 21.889 0 0 1 8.298-17.213l43.578-34.698c1.849-1.471 3.399-3.303 3.329-5.665-.066-2.244-.679-3.95-2.396-5.281-.711-1.346-3.236-7.149-3.692-22.223h62.028c-.456 15.075-2.981 20.877-3.692 22.224-1.718 1.331-2.331 3.037-2.396 5.281-.07 2.362 1.48 4.193 3.329 5.665l43.578 34.698a21.89 21.89 0 0 1 8.297 17.213v10.044H140.781a7.501 7.501 0 0 0 0 15.002h101.236v219.29H81.756v-219.29zM242.018 487.03h-.001c0 5.496-4.471 9.967-9.967 9.967H91.724c-5.496 0-9.968-4.471-9.968-9.967v-11.702h160.262v11.702z"/>
  <path d="M224.69 277.211a14.435 14.435 0 0 0-7.711-8.804c-36.557-16.918-73.629-16.919-110.187 0a14.437 14.437 0 0 0-7.711 8.803 14.394 14.394 0 0 0 1.361 11.591l6.661 11.237a14.372 14.372 0 0 0 12.363 7.055c1.951 0 3.928-.4 5.81-1.24 24.978-11.144 48.245-11.143 73.22 0 6.64 2.961 14.453.462 18.173-5.815l6.661-11.236a14.398 14.398 0 0 0 1.36-11.591zm-20.639 14.692c-28.365-12.496-55.962-12.496-84.328 0l-6.023-10.16c31.978-14.612 64.396-14.613 96.374 0l-6.023 10.16zM161.887 319.724c-28.71 0-51.2 16.454-51.2 37.459 0 21.005 22.489 37.459 51.2 37.459s51.2-16.454 51.2-37.459-22.49-37.459-51.2-37.459zm0 59.916c-19.621 0-36.197-10.284-36.197-22.456-.001-12.173 16.576-22.457 36.197-22.457 19.621 0 36.197 10.284 36.197 22.457 0 12.172-16.576 22.456-36.197 22.456zM433.34 345.306H329.317c-6.567 0-11.91 5.343-11.91 11.91v131.887c0 12.625 10.272 22.897 22.896 22.897h82.049c12.625 0 22.896-10.272 22.896-22.897V357.216c.001-6.567-5.342-11.91-11.908-11.91zm-100.929 61.982h11.181a7.501 7.501 0 0 0 0-15.002h-11.181v-31.977h97.835v31.977h-51.751a7.501 7.501 0 0 0 0 15.002h51.751v64.436c0 .167-.005.31-.013.431-1.553.371-4.95.377-7.297.368h-83.215c-2.334.011-5.743.003-7.297-.368a6.565 6.565 0 0 1-.013-.431v-64.436zm97.836 81.815c-.001 4.352-3.542 7.894-7.894 7.894h-82.049c-4.352 0-7.893-3.541-7.893-7.894v-1.807c2.341.232 4.806.237 7.318.229h83.2c2.514.008 4.976.003 7.318-.229v1.807z"/>
</svg>
